<svg width="334" height="115" viewBox="0 0 334 115" fill="none" xmlns="http://www.w3.org/2000/svg">
<circle cx="50.8993" cy="63.141" r="50.3993" fill="white" stroke="#A0CCE4"/>
<g clip-path="url(#clip0_6:13)">
<g filter="url(#filter0_d_6:13)">
<path d="M54.9005 43.3901C23.9917 41.0802 30.3146 23.3838 28.986 26.8819C27.6575 30.38 20.467 44.4325 33.3925 53.3064C42.7928 47.1932 47.5099 47.3591 55.1896 43.6031C55.0815 43.5389 54.9845 43.4676 54.9005 43.3901Z" fill="url(#paint0_linear_6:13)"/>
<path d="M76.5763 28.4597C76.5763 28.4597 76.4237 39.1084 40.9544 51.7289C5.48462 64.35 30.7486 86.2391 30.7486 86.2391C30.7486 86.2391 19.9418 69.8992 51.9309 59.5324C83.9199 49.1656 76.5763 28.4597 76.5763 28.4597Z" fill="url(#paint1_linear_6:13)"/>
<path d="M79.2202 33.5867C79.2202 33.5867 91.7533 50.3318 66.2562 71.14C45.1427 93.7321 55.1896 103.198 55.1896 103.198C55.1896 103.198 8.71633 79.1398 60.7126 60.0112C83.6267 49.1655 79.2202 33.5867 79.2202 33.5867Z" fill="url(#paint2_linear_6:13)"/>
</g>
</g>
<path d="M112.348 69H110.098V51.9375H112.348V69ZM118.184 56.3203L118.254 57.9141C119.223 56.6953 120.488 56.0859 122.051 56.0859C124.73 56.0859 126.082 57.5977 126.105 60.6211V69H123.938V60.6094C123.93 59.6953 123.719 59.0195 123.305 58.582C122.898 58.1445 122.262 57.9258 121.395 57.9258C120.691 57.9258 120.074 58.1133 119.543 58.4883C119.012 58.8633 118.598 59.3555 118.301 59.9648V69H116.133V56.3203H118.184ZM136.758 65.6367C136.758 65.0508 136.535 64.5977 136.09 64.2773C135.652 63.9492 134.883 63.668 133.781 63.4336C132.688 63.1992 131.816 62.918 131.168 62.5898C130.527 62.2617 130.051 61.8711 129.738 61.418C129.434 60.9648 129.281 60.4258 129.281 59.8008C129.281 58.7617 129.719 57.8828 130.594 57.1641C131.477 56.4453 132.602 56.0859 133.969 56.0859C135.406 56.0859 136.57 56.457 137.461 57.1992C138.359 57.9414 138.809 58.8906 138.809 60.0469H136.629C136.629 59.4531 136.375 58.9414 135.867 58.5117C135.367 58.082 134.734 57.8672 133.969 57.8672C133.18 57.8672 132.562 58.0391 132.117 58.3828C131.672 58.7266 131.449 59.1758 131.449 59.7305C131.449 60.2539 131.656 60.6484 132.07 60.9141C132.484 61.1797 133.23 61.4336 134.309 61.6758C135.395 61.918 136.273 62.207 136.945 62.543C137.617 62.8789 138.113 63.2852 138.434 63.7617C138.762 64.2305 138.926 64.8047 138.926 65.4844C138.926 66.6172 138.473 67.5273 137.566 68.2148C136.66 68.8945 135.484 69.2344 134.039 69.2344C133.023 69.2344 132.125 69.0547 131.344 68.6953C130.562 68.3359 129.949 67.8359 129.504 67.1953C129.066 66.5469 128.848 65.8477 128.848 65.0977H131.016C131.055 65.8242 131.344 66.4023 131.883 66.832C132.43 67.2539 133.148 67.4648 134.039 67.4648C134.859 67.4648 135.516 67.3008 136.008 66.9727C136.508 66.6367 136.758 66.1914 136.758 65.6367ZM152.461 62.8008C152.461 64.7305 152.02 66.2852 151.137 67.4648C150.254 68.6445 149.059 69.2344 147.551 69.2344C146.012 69.2344 144.801 68.7461 143.918 67.7695V73.875H141.75V56.3203H143.73L143.836 57.7266C144.719 56.6328 145.945 56.0859 147.516 56.0859C149.039 56.0859 150.242 56.6602 151.125 57.8086C152.016 58.957 152.461 60.5547 152.461 62.6016V62.8008ZM150.293 62.5547C150.293 61.125 149.988 59.9961 149.379 59.168C148.77 58.3398 147.934 57.9258 146.871 57.9258C145.559 57.9258 144.574 58.5078 143.918 59.6719V65.7305C144.566 66.8867 145.559 67.4648 146.895 67.4648C147.934 67.4648 148.758 67.0547 149.367 66.2344C149.984 65.4062 150.293 64.1797 150.293 62.5547ZM157.582 69H155.414V56.3203H157.582V69ZM155.238 52.957C155.238 52.6055 155.344 52.3086 155.555 52.0664C155.773 51.8242 156.094 51.7031 156.516 51.7031C156.938 51.7031 157.258 51.8242 157.477 52.0664C157.695 52.3086 157.805 52.6055 157.805 52.957C157.805 53.3086 157.695 53.6016 157.477 53.8359C157.258 54.0703 156.938 54.1875 156.516 54.1875C156.094 54.1875 155.773 54.0703 155.555 53.8359C155.344 53.6016 155.238 53.3086 155.238 52.957ZM167.191 58.2656C166.863 58.2109 166.508 58.1836 166.125 58.1836C164.703 58.1836 163.738 58.7891 163.23 60V69H161.062V56.3203H163.172L163.207 57.7852C163.918 56.6523 164.926 56.0859 166.23 56.0859C166.652 56.0859 166.973 56.1406 167.191 56.25V58.2656ZM176.555 69C176.43 68.75 176.328 68.3047 176.25 67.6641C175.242 68.7109 174.039 69.2344 172.641 69.2344C171.391 69.2344 170.363 68.8828 169.559 68.1797C168.762 67.4688 168.363 66.5703 168.363 65.4844C168.363 64.1641 168.863 63.1406 169.863 62.4141C170.871 61.6797 172.285 61.3125 174.105 61.3125H176.215V60.3164C176.215 59.5586 175.988 58.957 175.535 58.5117C175.082 58.0586 174.414 57.832 173.531 57.832C172.758 57.832 172.109 58.0273 171.586 58.418C171.062 58.8086 170.801 59.2812 170.801 59.8359H168.621C168.621 59.2031 168.844 58.5938 169.289 58.0078C169.742 57.4141 170.352 56.9453 171.117 56.6016C171.891 56.2578 172.738 56.0859 173.66 56.0859C175.121 56.0859 176.266 56.4531 177.094 57.1875C177.922 57.9141 178.352 58.918 178.383 60.1992V66.0352C178.383 67.1992 178.531 68.125 178.828 68.8125V69H176.555ZM172.957 67.3477C173.637 67.3477 174.281 67.1719 174.891 66.8203C175.5 66.4688 175.941 66.0117 176.215 65.4492V62.8477H174.516C171.859 62.8477 170.531 63.625 170.531 65.1797C170.531 65.8594 170.758 66.3906 171.211 66.7734C171.664 67.1562 172.246 67.3477 172.957 67.3477ZM184.723 53.25V56.3203H187.09V57.9961H184.723V65.8594C184.723 66.3672 184.828 66.75 185.039 67.0078C185.25 67.2578 185.609 67.3828 186.117 67.3828C186.367 67.3828 186.711 67.3359 187.148 67.2422V69C186.578 69.1562 186.023 69.2344 185.484 69.2344C184.516 69.2344 183.785 68.9414 183.293 68.3555C182.801 67.7695 182.555 66.9375 182.555 65.8594V57.9961H180.246V56.3203H182.555V53.25H184.723ZM191.988 69H189.82V56.3203H191.988V69ZM189.645 52.957C189.645 52.6055 189.75 52.3086 189.961 52.0664C190.18 51.8242 190.5 51.7031 190.922 51.7031C191.344 51.7031 191.664 51.8242 191.883 52.0664C192.102 52.3086 192.211 52.6055 192.211 52.957C192.211 53.3086 192.102 53.6016 191.883 53.8359C191.664 54.0703 191.344 54.1875 190.922 54.1875C190.5 54.1875 190.18 54.0703 189.961 53.8359C189.75 53.6016 189.645 53.3086 189.645 52.957ZM194.895 62.543C194.895 61.3008 195.137 60.1836 195.621 59.1914C196.113 58.1992 196.793 57.4336 197.66 56.8945C198.535 56.3555 199.531 56.0859 200.648 56.0859C202.375 56.0859 203.77 56.6836 204.832 57.8789C205.902 59.0742 206.438 60.6641 206.438 62.6484V62.8008C206.438 64.0352 206.199 65.1445 205.723 66.1289C205.254 67.1055 204.578 67.8672 203.695 68.4141C202.82 68.9609 201.812 69.2344 200.672 69.2344C198.953 69.2344 197.559 68.6367 196.488 67.4414C195.426 66.2461 194.895 64.6641 194.895 62.6953V62.543ZM197.074 62.8008C197.074 64.207 197.398 65.3359 198.047 66.1875C198.703 67.0391 199.578 67.4648 200.672 67.4648C201.773 67.4648 202.648 67.0352 203.297 66.1758C203.945 65.3086 204.27 64.0977 204.27 62.543C204.27 61.1523 203.938 60.0273 203.273 59.168C202.617 58.3008 201.742 57.8672 200.648 57.8672C199.578 57.8672 198.715 58.293 198.059 59.1445C197.402 59.9961 197.074 61.2148 197.074 62.8008ZM211.207 56.3203L211.277 57.9141C212.246 56.6953 213.512 56.0859 215.074 56.0859C217.754 56.0859 219.105 57.5977 219.129 60.6211V69H216.961V60.6094C216.953 59.6953 216.742 59.0195 216.328 58.582C215.922 58.1445 215.285 57.9258 214.418 57.9258C213.715 57.9258 213.098 58.1133 212.566 58.4883C212.035 58.8633 211.621 59.3555 211.324 59.9648V69H209.156V56.3203H211.207Z" fill="#A80283"/>
<path d="M232.863 62.6367H227.145V60.8672H232.863V62.6367Z" fill="#395CB7"/>
<path d="M241.277 69V51.9375H246.094C247.578 51.9375 248.891 52.2656 250.031 52.9219C251.172 53.5781 252.051 54.5117 252.668 55.7227C253.293 56.9336 253.609 58.3242 253.617 59.8945V60.9844C253.617 62.5938 253.305 64.0039 252.68 65.2148C252.062 66.4258 251.176 67.3555 250.02 68.0039C248.871 68.6523 247.531 68.9844 246 69H241.277ZM243.527 53.7891V67.1602H245.895C247.629 67.1602 248.977 66.6211 249.938 65.543C250.906 64.4648 251.391 62.9297 251.391 60.9375V59.9414C251.391 58.0039 250.934 56.5 250.02 55.4297C249.113 54.3516 247.824 53.8047 246.152 53.7891H243.527ZM261.949 69.2344C260.23 69.2344 258.832 68.6719 257.754 67.5469C256.676 66.4141 256.137 64.9023 256.137 63.0117V62.6133C256.137 61.3555 256.375 60.2344 256.852 59.25C257.336 58.2578 258.008 57.4844 258.867 56.9297C259.734 56.3672 260.672 56.0859 261.68 56.0859C263.328 56.0859 264.609 56.6289 265.523 57.7148C266.438 58.8008 266.895 60.3555 266.895 62.3789V63.2812H258.305C258.336 64.5312 258.699 65.543 259.395 66.3164C260.098 67.082 260.988 67.4648 262.066 67.4648C262.832 67.4648 263.48 67.3086 264.012 66.9961C264.543 66.6836 265.008 66.2695 265.406 65.7539L266.73 66.7852C265.668 68.418 264.074 69.2344 261.949 69.2344ZM261.68 57.8672C260.805 57.8672 260.07 58.1875 259.477 58.8281C258.883 59.4609 258.516 60.3516 258.375 61.5H264.727V61.3359C264.664 60.2344 264.367 59.3828 263.836 58.7812C263.305 58.1719 262.586 57.8672 261.68 57.8672ZM276.797 65.6367C276.797 65.0508 276.574 64.5977 276.129 64.2773C275.691 63.9492 274.922 63.668 273.82 63.4336C272.727 63.1992 271.855 62.918 271.207 62.5898C270.566 62.2617 270.09 61.8711 269.777 61.418C269.473 60.9648 269.32 60.4258 269.32 59.8008C269.32 58.7617 269.758 57.8828 270.633 57.1641C271.516 56.4453 272.641 56.0859 274.008 56.0859C275.445 56.0859 276.609 56.457 277.5 57.1992C278.398 57.9414 278.848 58.8906 278.848 60.0469H276.668C276.668 59.4531 276.414 58.9414 275.906 58.5117C275.406 58.082 274.773 57.8672 274.008 57.8672C273.219 57.8672 272.602 58.0391 272.156 58.3828C271.711 58.7266 271.488 59.1758 271.488 59.7305C271.488 60.2539 271.695 60.6484 272.109 60.9141C272.523 61.1797 273.27 61.4336 274.348 61.6758C275.434 61.918 276.312 62.207 276.984 62.543C277.656 62.8789 278.152 63.2852 278.473 63.7617C278.801 64.2305 278.965 64.8047 278.965 65.4844C278.965 66.6172 278.512 67.5273 277.605 68.2148C276.699 68.8945 275.523 69.2344 274.078 69.2344C273.062 69.2344 272.164 69.0547 271.383 68.6953C270.602 68.3359 269.988 67.8359 269.543 67.1953C269.105 66.5469 268.887 65.8477 268.887 65.0977H271.055C271.094 65.8242 271.383 66.4023 271.922 66.832C272.469 67.2539 273.188 67.4648 274.078 67.4648C274.898 67.4648 275.555 67.3008 276.047 66.9727C276.547 66.6367 276.797 66.1914 276.797 65.6367ZM284.145 69H281.977V56.3203H284.145V69ZM281.801 52.957C281.801 52.6055 281.906 52.3086 282.117 52.0664C282.336 51.8242 282.656 51.7031 283.078 51.7031C283.5 51.7031 283.82 51.8242 284.039 52.0664C284.258 52.3086 284.367 52.6055 284.367 52.957C284.367 53.3086 284.258 53.6016 284.039 53.8359C283.82 54.0703 283.5 54.1875 283.078 54.1875C282.656 54.1875 282.336 54.0703 282.117 53.8359C281.906 53.6016 281.801 53.3086 281.801 52.957ZM287.109 62.5547C287.109 60.5781 287.566 59.0078 288.48 57.8438C289.395 56.6719 290.605 56.0859 292.113 56.0859C293.66 56.0859 294.867 56.6328 295.734 57.7266L295.84 56.3203H297.82V68.6953C297.82 70.3359 297.332 71.6289 296.355 72.5742C295.387 73.5195 294.082 73.9922 292.441 73.9922C291.527 73.9922 290.633 73.7969 289.758 73.4062C288.883 73.0156 288.215 72.4805 287.754 71.8008L288.879 70.5C289.809 71.6484 290.945 72.2227 292.289 72.2227C293.344 72.2227 294.164 71.9258 294.75 71.332C295.344 70.7383 295.641 69.9023 295.641 68.8242V67.7344C294.773 68.7344 293.59 69.2344 292.09 69.2344C290.605 69.2344 289.402 68.6367 288.48 67.4414C287.566 66.2461 287.109 64.6172 287.109 62.5547ZM289.289 62.8008C289.289 64.2305 289.582 65.3555 290.168 66.1758C290.754 66.9883 291.574 67.3945 292.629 67.3945C293.996 67.3945 295 66.7734 295.641 65.5312V59.7422C294.977 58.5312 293.98 57.9258 292.652 57.9258C291.598 57.9258 290.773 58.3359 290.18 59.1562C289.586 59.9766 289.289 61.1914 289.289 62.8008ZM303.152 56.3203L303.223 57.9141C304.191 56.6953 305.457 56.0859 307.02 56.0859C309.699 56.0859 311.051 57.5977 311.074 60.6211V69H308.906V60.6094C308.898 59.6953 308.688 59.0195 308.273 58.582C307.867 58.1445 307.23 57.9258 306.363 57.9258C305.66 57.9258 305.043 58.1133 304.512 58.4883C303.98 58.8633 303.566 59.3555 303.27 59.9648V69H301.102V56.3203H303.152Z" fill="#2C2B72"/>
<defs>
<filter id="filter0_d_6:13" x="14.0271" y="22.4258" width="76.2732" height="92.772" filterUnits="userSpaceOnUse" color-interpolation-filters="sRGB">
<feFlood flood-opacity="0" result="BackgroundImageFix"/>
<feColorMatrix in="SourceAlpha" type="matrix" values="0 0 0 0 0 0 0 0 0 0 0 0 0 0 0 0 0 0 127 0" result="hardAlpha"/>
<feOffset dy="4"/>
<feGaussianBlur stdDeviation="4"/>
<feColorMatrix type="matrix" values="0 0 0 0 0 0 0 0 0 0 0 0 0 0 0 0 0 0 0.25 0"/>
<feBlend mode="normal" in2="BackgroundImageFix" result="effect1_dropShadow_6:13"/>
<feBlend mode="normal" in="SourceGraphic" in2="effect1_dropShadow_6:13" result="shape"/>
</filter>
<linearGradient id="paint0_linear_6:13" x1="25.7958" y1="39.8663" x2="55.1899" y2="39.8663" gradientUnits="userSpaceOnUse">
<stop stop-color="#FF6262"/>
<stop offset="0.0595" stop-color="#FD5555"/>
<stop offset="0.1303" stop-color="#F94C6B"/>
<stop offset="0.2032" stop-color="#F64786"/>
<stop offset="0.2809" stop-color="#F54685"/>
<stop offset="0.6685" stop-color="#E550D6"/>
<stop offset="0.8876" stop-color="#DD7049"/>
<stop offset="1" stop-color="#D74D43"/>
</linearGradient>
<linearGradient id="paint1_linear_6:13" x1="22.0273" y1="57.3494" x2="77.3037" y2="57.3494" gradientUnits="userSpaceOnUse">
<stop stop-color="#FFF462"/>
<stop offset="0.0595" stop-color="#FDE155"/>
<stop offset="0.1303" stop-color="#F9D44C"/>
<stop offset="0.2032" stop-color="#F6CB47"/>
<stop offset="0.2809" stop-color="#F5C946"/>
<stop offset="0.6685" stop-color="#E59550"/>
<stop offset="0.8876" stop-color="#DD7049"/>
<stop offset="1" stop-color="#D74D43"/>
</linearGradient>
<linearGradient id="paint2_linear_6:13" x1="36.0791" y1="68.3923" x2="82.3005" y2="68.3923" gradientUnits="userSpaceOnUse">
<stop stop-color="#D662FF"/>
<stop offset="0.0595" stop-color="#FA55FD"/>
<stop offset="0.1303" stop-color="#F94CD3"/>
<stop offset="0.2032" stop-color="#F647CF"/>
<stop offset="0.2809" stop-color="#F546AF"/>
<stop offset="0.6685" stop-color="#E55074"/>
<stop offset="0.8876" stop-color="#DD6D49"/>
<stop offset="1" stop-color="#D74D43"/>
</linearGradient>
<clipPath id="clip0_6:13">
<rect width="105.664" height="112.107" fill="white" transform="translate(16.1074)"/>
</clipPath>
</defs>
</svg>
