<svg width="122" height="115" viewBox="0 0 122 115" fill="none" xmlns="http://www.w3.org/2000/svg">
<circle cx="50.8993" cy="63.141" r="50.3993" fill="white" stroke="#A0CCE4"/>
<g clip-path="url(#clip0_6:13)">
<g filter="url(#filter0_d_6:13)">
<path d="M54.9005 43.3901C23.9917 41.0802 30.3146 23.3838 28.986 26.8819C27.6575 30.38 20.467 44.4325 33.3925 53.3064C42.7928 47.1932 47.5099 47.3591 55.1896 43.6031C55.0815 43.5389 54.9845 43.4676 54.9005 43.3901Z" fill="url(#paint0_linear_6:13)"/>
<path d="M76.5763 28.4597C76.5763 28.4597 76.4237 39.1084 40.9544 51.7289C5.48462 64.35 30.7486 86.2391 30.7486 86.2391C30.7486 86.2391 19.9418 69.8992 51.9309 59.5324C83.9199 49.1656 76.5763 28.4597 76.5763 28.4597Z" fill="url(#paint1_linear_6:13)"/>
<path d="M79.2202 33.5867C79.2202 33.5867 91.7533 50.3318 66.2562 71.14C45.1427 93.7321 55.1896 103.198 55.1896 103.198C55.1896 103.198 8.71633 79.1398 60.7126 60.0112C83.6267 49.1655 79.2202 33.5867 79.2202 33.5867Z" fill="url(#paint2_linear_6:13)"/>
</g>
</g>
<defs>
<filter id="filter0_d_6:13" x="14.0271" y="22.4258" width="76.2732" height="92.772" filterUnits="userSpaceOnUse" color-interpolation-filters="sRGB">
<feFlood flood-opacity="0" result="BackgroundImageFix"/>
<feColorMatrix in="SourceAlpha" type="matrix" values="0 0 0 0 0 0 0 0 0 0 0 0 0 0 0 0 0 0 127 0" result="hardAlpha"/>
<feOffset dy="4"/>
<feGaussianBlur stdDeviation="4"/>
<feColorMatrix type="matrix" values="0 0 0 0 0 0 0 0 0 0 0 0 0 0 0 0 0 0 0.25 0"/>
<feBlend mode="normal" in2="BackgroundImageFix" result="effect1_dropShadow_6:13"/>
<feBlend mode="normal" in="SourceGraphic" in2="effect1_dropShadow_6:13" result="shape"/>
</filter>
<linearGradient id="paint0_linear_6:13" x1="25.7958" y1="39.8663" x2="55.1899" y2="39.8663" gradientUnits="userSpaceOnUse">
<stop stop-color="#FF6262"/>
<stop offset="0.0595" stop-color="#FD5555"/>
<stop offset="0.1303" stop-color="#F94C6B"/>
<stop offset="0.2032" stop-color="#F64786"/>
<stop offset="0.2809" stop-color="#F54685"/>
<stop offset="0.6685" stop-color="#E550D6"/>
<stop offset="0.8876" stop-color="#DD7049"/>
<stop offset="1" stop-color="#D74D43"/>
</linearGradient>
<linearGradient id="paint1_linear_6:13" x1="22.0273" y1="57.3494" x2="77.3037" y2="57.3494" gradientUnits="userSpaceOnUse">
<stop stop-color="#FFF462"/>
<stop offset="0.0595" stop-color="#FDE155"/>
<stop offset="0.1303" stop-color="#F9D44C"/>
<stop offset="0.2032" stop-color="#F6CB47"/>
<stop offset="0.2809" stop-color="#F5C946"/>
<stop offset="0.6685" stop-color="#E59550"/>
<stop offset="0.8876" stop-color="#DD7049"/>
<stop offset="1" stop-color="#D74D43"/>
</linearGradient>
<linearGradient id="paint2_linear_6:13" x1="36.0791" y1="68.3923" x2="82.3005" y2="68.3923" gradientUnits="userSpaceOnUse">
<stop stop-color="#D662FF"/>
<stop offset="0.0595" stop-color="#FA55FD"/>
<stop offset="0.1303" stop-color="#F94CD3"/>
<stop offset="0.2032" stop-color="#F647CF"/>
<stop offset="0.2809" stop-color="#F546AF"/>
<stop offset="0.6685" stop-color="#E55074"/>
<stop offset="0.8876" stop-color="#DD6D49"/>
<stop offset="1" stop-color="#D74D43"/>
</linearGradient>
<clipPath id="clip0_6:13">
<rect width="105.664" height="112.107" fill="white" transform="translate(16.1074)"/>
</clipPath>
</defs>
</svg>
