<svg width="112" height="137" viewBox="0 0 112 137" fill="none" xmlns="http://www.w3.org/2000/svg">
<g filter="url(#filter0_d_306_6)">
<path d="M60.173 31.1059C11.6579 27.4802 21.5824 -0.296453 19.497 5.19425C17.4117 10.685 6.12541 32.742 26.4135 46.6707C41.1684 37.0752 48.5726 37.3357 60.6267 31.4402C60.4572 31.3394 60.3048 31.2275 60.173 31.1059Z" fill="#FAFAFA"/>
<path d="M94.1957 7.67065C94.1957 7.67065 93.9562 24.3851 38.2828 44.1946C-17.3913 64.0049 22.2636 98.3625 22.2636 98.3625C22.2636 98.3625 5.30095 72.715 55.5118 56.443C105.722 40.171 94.1957 7.67065 94.1957 7.67065Z" fill="#F3F0F0"/>
<path d="M98.3458 15.7183C98.3458 15.7183 118.018 42.0018 77.9971 74.6628C44.857 110.124 60.6267 124.981 60.6267 124.981C60.6267 124.981 -12.3187 87.2195 69.2958 57.1947C105.262 40.1711 98.3458 15.7183 98.3458 15.7183Z" fill="#F8F1F1"/>
</g>
<defs>
<filter id="filter0_d_306_6" x="0.574127" y="0.478271" width="110.606" height="136.503" filterUnits="userSpaceOnUse" color-interpolation-filters="sRGB">
<feFlood flood-opacity="0" result="BackgroundImageFix"/>
<feColorMatrix in="SourceAlpha" type="matrix" values="0 0 0 0 0 0 0 0 0 0 0 0 0 0 0 0 0 0 127 0" result="hardAlpha"/>
<feOffset dy="4"/>
<feGaussianBlur stdDeviation="4"/>
<feColorMatrix type="matrix" values="0 0 0 0 0 0 0 0 0 0 0 0 0 0 0 0 0 0 0.25 0"/>
<feBlend mode="normal" in2="BackgroundImageFix" result="effect1_dropShadow_306_6"/>
<feBlend mode="normal" in="SourceGraphic" in2="effect1_dropShadow_306_6" result="shape"/>
</filter>
</defs>
</svg>
