<svg width="140" height="316" viewBox="0 0 140 316" fill="none" xmlns="http://www.w3.org/2000/svg">
<path d="M75.922 113.688C5.77799 105.879 20.127 46.053 17.112 57.879C14.097 69.705 -2.22101 117.212 27.112 147.212C48.445 126.545 59.15 127.106 76.578 114.408C76.333 114.191 76.113 113.95 75.922 113.688Z" fill="url(#paint0_linear)"/>
<path d="M125.113 63.213C125.113 63.213 124.767 99.213 44.273 141.879C-36.222 184.547 21.112 258.547 21.112 258.547C21.112 258.547 -3.41302 203.307 69.183 168.26C141.779 133.213 125.113 63.213 125.113 63.213Z" fill="url(#paint1_linear)"/>
<path d="M131.113 80.546C131.113 80.546 159.556 137.156 101.693 207.502C53.778 283.879 76.578 315.879 76.578 315.879C76.578 315.879 -28.888 234.547 89.112 169.879C141.113 133.213 131.113 80.546 131.113 80.546Z" fill="url(#paint2_linear)"/>
<path d="M1.31998 4.54599C-0.899017 -9.54301 -0.888027 33.879 39.301 53.063C62.446 59.879 70.211 92.546 70.211 92.546C70.211 92.546 68.235 73.107 100.34 53.493C139.113 37.879 142.215 -13.546 138.104 4.54599C133.991 22.638 73.113 43.213 73.113 43.213C73.113 43.213 3.53898 18.635 1.31998 4.54599Z" fill="url(#paint3_linear)"/>
<defs>
<linearGradient id="paint0_linear" x1="9.87209" y1="101.775" x2="76.5786" y2="101.775" gradientUnits="userSpaceOnUse">
<stop stop-color="#FF6262"/>
<stop offset="0.0595" stop-color="#FD5555"/>
<stop offset="0.1303" stop-color="#F94C6B"/>
<stop offset="0.2032" stop-color="#F64786"/>
<stop offset="0.2809" stop-color="#F54685"/>
<stop offset="0.6685" stop-color="#E550D6"/>
<stop offset="0.8876" stop-color="#DD7049"/>
<stop offset="1" stop-color="#D74D43"/>
</linearGradient>
<linearGradient id="paint1_linear" x1="1.31978" y1="160.88" x2="126.764" y2="160.88" gradientUnits="userSpaceOnUse">
<stop stop-color="#FFF462"/>
<stop offset="0.0595" stop-color="#FDE155"/>
<stop offset="0.1303" stop-color="#F9D44C"/>
<stop offset="0.2032" stop-color="#F6CB47"/>
<stop offset="0.2809" stop-color="#F5C946"/>
<stop offset="0.6685" stop-color="#E59550"/>
<stop offset="0.8876" stop-color="#DD7049"/>
<stop offset="1" stop-color="#D74D43"/>
</linearGradient>
<linearGradient id="paint2_linear" x1="33.209" y1="198.213" x2="138.103" y2="198.213" gradientUnits="userSpaceOnUse">
<stop stop-color="#D662FF"/>
<stop offset="0.0595" stop-color="#FA55FD"/>
<stop offset="0.1303" stop-color="#F94CD3"/>
<stop offset="0.2032" stop-color="#F647CF"/>
<stop offset="0.2809" stop-color="#F546AF"/>
<stop offset="0.6685" stop-color="#E55074"/>
<stop offset="0.8876" stop-color="#DD6D49"/>
<stop offset="1" stop-color="#D74D43"/>
</linearGradient>
<linearGradient id="paint3_linear" x1="0.556582" y1="46.6426" x2="139.477" y2="46.6426" gradientUnits="userSpaceOnUse">
<stop stop-color="#FFF462"/>
<stop offset="0.0595" stop-color="#FDE155"/>
<stop offset="0.1303" stop-color="#F9D44C"/>
<stop offset="0.2032" stop-color="#F6CB47"/>
<stop offset="0.2809" stop-color="#F5C946"/>
<stop offset="0.6685" stop-color="#E59550"/>
<stop offset="0.8876" stop-color="#DD7049"/>
<stop offset="1" stop-color="#D74D43"/>
</linearGradient>
</defs>
</svg>
